<svg id="圖層_1" data-name="圖層 1" xmlns="http://www.w3.org/2000/svg" viewBox="0 0 135 40"><defs><style>.cls-1{fill:#a6a6a6;}.cls-2{fill:#fff;}</style></defs><title>download_03_EN</title><path class="cls-1" d="M130.2,40H4.73A4.74,4.74,0,0,1,0,35.27V4.73A4.73,4.73,0,0,1,4.73,0H130.2A4.8,4.8,0,0,1,135,4.73V35.27A4.8,4.8,0,0,1,130.2,40Z"/><path d="M134,35.27a3.83,3.83,0,0,1-3.83,3.83H4.73A3.83,3.83,0,0,1,.89,35.27V4.72A3.84,3.84,0,0,1,4.73.89H130.2A3.83,3.83,0,0,1,134,4.72V35.27Z"/><path class="cls-2" d="M43.72,10.69a.51.51,0,0,1,.54-.41h2.17a.51.51,0,0,1,.54.41l2.24,8.09c.08.29,0,.42-.29.42H47.52a.5.5,0,0,1-.53-.42l-.4-1.4h-2.5l-.39,1.4a.51.51,0,0,1-.54.42H41.76c-.28,0-.37-.14-.29-.42Zm2.46,5.21-.84-3-.84,3Z"/><path class="cls-2" d="M50.91,12.92a.36.36,0,0,1,.41-.41H56a1.45,1.45,0,0,1,1.65,1.65v4.62a.37.37,0,0,1-.41.42H55.79a.37.37,0,0,1-.41-.42V14.41A.36.36,0,0,0,55,14H53.56a.36.36,0,0,0-.41.41v4.38a.37.37,0,0,1-.41.42H51.33a.37.37,0,0,1-.41-.42Z"/><path class="cls-2" d="M65.55,19.21H60.92a1.46,1.46,0,0,1-1.65-1.66V14.16a1.45,1.45,0,0,1,1.65-1.65h2.6a.19.19,0,0,0,.21-.21V10.69a.36.36,0,0,1,.41-.41h1.41a.36.36,0,0,1,.41.41v8.09A.37.37,0,0,1,65.55,19.21Zm-1.82-1.9v-2.9a.36.36,0,0,0-.41-.41H61.91a.36.36,0,0,0-.41.41v2.9a.36.36,0,0,0,.41.41h1.41A.36.36,0,0,0,63.73,17.3Z"/><path class="cls-2" d="M67.62,12.92a.36.36,0,0,1,.41-.41h3.23a.36.36,0,0,1,.41.41v.66a.36.36,0,0,1-.41.41h-1a.36.36,0,0,0-.41.41v4.38a.37.37,0,0,1-.41.42H68a.37.37,0,0,1-.41-.42Z"/><path class="cls-2" d="M73.33,14.16A1.45,1.45,0,0,1,75,12.51h3.4A1.45,1.45,0,0,1,80,14.16v3.39a1.46,1.46,0,0,1-1.65,1.66H75a1.46,1.46,0,0,1-1.65-1.66Zm4.05,3.56a.36.36,0,0,0,.41-.41v-2.9a.36.36,0,0,0-.41-.41H76a.36.36,0,0,0-.41.41v2.9a.36.36,0,0,0,.41.41Z"/><path class="cls-2" d="M81.68,11.26a.36.36,0,0,1,.41-.41H83.5a.36.36,0,0,1,.41.41v.42a.36.36,0,0,1-.41.41H82.09a.36.36,0,0,1-.41-.41Zm0,1.66a.36.36,0,0,1,.41-.41H83.5a.36.36,0,0,1,.41.41v5.86a.37.37,0,0,1-.41.42H82.09a.37.37,0,0,1-.41-.42Z"/><path class="cls-2" d="M91.85,19.21H87.22a1.46,1.46,0,0,1-1.65-1.66V14.16a1.45,1.45,0,0,1,1.65-1.65h2.6A.19.19,0,0,0,90,12.3V10.69a.36.36,0,0,1,.41-.41h1.41a.36.36,0,0,1,.41.41v8.09A.37.37,0,0,1,91.85,19.21ZM90,17.3v-2.9a.36.36,0,0,0-.41-.41H88.21a.36.36,0,0,0-.41.41v2.9a.36.36,0,0,0,.41.41h1.41A.36.36,0,0,0,90,17.3Z"/><path class="cls-2" d="M101.5,10.69a.51.51,0,0,1,.54-.41h2.17a.51.51,0,0,1,.54.41L107,18.79c.08.29,0,.42-.29.42H105.3a.5.5,0,0,1-.53-.42l-.4-1.4h-2.5l-.39,1.4a.51.51,0,0,1-.54.42H99.53c-.28,0-.37-.14-.29-.42ZM104,15.9l-.84-3-.84,3Z"/><path class="cls-2" d="M108.69,10.69a.36.36,0,0,1,.41-.41h5.75a1.45,1.45,0,0,1,1.65,1.65v2.23a1.45,1.45,0,0,1-1.65,1.65h-3.71a.19.19,0,0,0-.21.21v2.76a.37.37,0,0,1-.41.42H109.1a.37.37,0,0,1-.41-.42Zm5.16,3.64c.29,0,.41-.14.41-.42V12.17a.36.36,0,0,0-.41-.41h-2.72a.19.19,0,0,0-.21.21v2.15a.19.19,0,0,0,.21.21Z"/><path class="cls-2" d="M125.77,19.21H124a.92.92,0,0,1-.74-.42l-2.81-3.53v3.53a.37.37,0,0,1-.41.42h-1.41a.37.37,0,0,1-.41-.42V10.69a.36.36,0,0,1,.41-.41H120a.36.36,0,0,1,.41.41v3.53l2.81-3.53a.9.9,0,0,1,.74-.41h1.82c.28,0,.3.13.08.41l-3.23,4.05,3.23,4C126.07,19.07,126,19.21,125.77,19.21Z"/><path class="cls-2" d="M15,27.6a1.27,1.27,0,0,0,1.27,1.27h1.27V33.3a1.9,1.9,0,1,0,3.8,0V28.87h2.53V33.3a1.9,1.9,0,1,0,3.8,0V28.87H29a1.27,1.27,0,0,0,1.27-1.27V14.93H15ZM11.88,14.93a1.9,1.9,0,0,0-1.9,1.9V25.7a1.9,1.9,0,1,0,3.8,0V16.83A1.9,1.9,0,0,0,11.88,14.93Zm21.54,0a1.9,1.9,0,0,0-1.9,1.9V25.7a1.9,1.9,0,1,0,3.8,0V16.83A1.9,1.9,0,0,0,33.41,14.93Zm-6.3-7.4,1.65-1.65a.64.64,0,1,0-.9-.9L26,6.86a7.4,7.4,0,0,0-3.34-.8,7.5,7.5,0,0,0-3.37.8L17.39,5a.64.64,0,1,0-.9.9l1.66,1.66A7.58,7.58,0,0,0,15,13.67h15.2A7.56,7.56,0,0,0,27.12,7.53Zm-7,3.6H18.84V9.86h1.27Zm6.33,0H25.18V9.86h1.27Z"/><path class="cls-2" d="M41.44,23a.29.29,0,0,1,.33-.33h3.57a2,2,0,0,1,2.29,2.29v2.49a2,2,0,0,1-2.29,2.3H41.77a.29.29,0,0,1-.33-.33Zm3.43,5.56a.87.87,0,0,0,1-1V24.81a.87.87,0,0,0-1-1h-1.5a.15.15,0,0,0-.17.17v4.38a.15.15,0,0,0,.17.17Z"/><path class="cls-2" d="M48.94,25.73a1.15,1.15,0,0,1,1.31-1.31h2.69a1.15,1.15,0,0,1,1.31,1.31v2.68a1.16,1.16,0,0,1-1.31,1.32H50.25a1.16,1.16,0,0,1-1.31-1.32Zm3.21,2.81a.29.29,0,0,0,.33-.33v-2.3a.29.29,0,0,0-.33-.33H51a.29.29,0,0,0-.33.33v2.3a.29.29,0,0,0,.33.33Z"/><path class="cls-2" d="M62.16,28.41a1.16,1.16,0,0,1-1.31,1.32h-4a1.16,1.16,0,0,1-1.31-1.32V24.75a.29.29,0,0,1,.33-.33H57a.29.29,0,0,1,.33.33v3.47a.33.33,0,1,0,.65,0V24.75a.29.29,0,0,1,.33-.33h1.11a.29.29,0,0,1,.33.33v3.47a.29.29,0,0,0,.33.33.29.29,0,0,0,.33-.33V24.75a.29.29,0,0,1,.33-.33h1.11a.29.29,0,0,1,.33.33Z"/><path class="cls-2" d="M63.47,24.75a.29.29,0,0,1,.33-.33h3.67a1.15,1.15,0,0,1,1.31,1.31v3.66a.29.29,0,0,1-.33.33H67.34a.29.29,0,0,1-.33-.33V25.92a.29.29,0,0,0-.33-.33H65.57a.29.29,0,0,0-.33.33v3.47a.29.29,0,0,1-.33.33H63.8a.29.29,0,0,1-.33-.33Z"/><path class="cls-2" d="M70.09,23a.29.29,0,0,1,.33-.33h1.11a.29.29,0,0,1,.33.33v6.41a.29.29,0,0,1-.33.33H70.41a.29.29,0,0,1-.33-.33Z"/><path class="cls-2" d="M73.16,25.73a1.15,1.15,0,0,1,1.31-1.31h2.69a1.15,1.15,0,0,1,1.31,1.31v2.68a1.16,1.16,0,0,1-1.31,1.32H74.47a1.16,1.16,0,0,1-1.31-1.32Zm3.21,2.81a.29.29,0,0,0,.33-.33v-2.3a.29.29,0,0,0-.33-.33H75.26a.29.29,0,0,0-.33.33v2.3a.29.29,0,0,0,.33.33Z"/><path class="cls-2" d="M85.08,25.73v3.66a.29.29,0,0,1-.33.33H81.08a1.16,1.16,0,0,1-1.31-1.32v-.91a1.15,1.15,0,0,1,1.31-1.31h2.06a.15.15,0,0,0,.17-.17v-.1a.29.29,0,0,0-.33-.33H80.1a.29.29,0,0,1-.33-.33v-.52a.29.29,0,0,1,.33-.33h3.67A1.15,1.15,0,0,1,85.08,25.73Zm-3.21,2.81h1.27c.11,0,.17-.07.17-.2v-.81a.15.15,0,0,0-.17-.17H81.87a.29.29,0,0,0-.33.33v.53A.29.29,0,0,0,81.87,28.54Z"/><path class="cls-2" d="M91.37,29.72H87.7a1.16,1.16,0,0,1-1.31-1.32V25.73a1.15,1.15,0,0,1,1.31-1.31h2.06a.15.15,0,0,0,.17-.17V23a.29.29,0,0,1,.33-.33h1.11a.29.29,0,0,1,.33.33v6.41A.29.29,0,0,1,91.37,29.72Zm-1.44-1.51v-2.3a.29.29,0,0,0-.33-.33H88.48a.29.29,0,0,0-.33.33v2.3a.29.29,0,0,0,.33.33H89.6A.29.29,0,0,0,89.92,28.21Z"/></svg>