<svg id="圖層_1" data-name="圖層 1" xmlns="http://www.w3.org/2000/svg" viewBox="0 0 135 40"><defs><style>.cls-1{fill:#a6a6a6;}.cls-2{fill:#fff;}.cls-3{fill:#009fe8;}.cls-4{fill:#e4006e;}.cls-5{fill:#c3d600;}.cls-6{fill:#db6aa3;}.cls-7{fill:#f29600;}.cls-8{fill:#006ab6;}.cls-9{fill:#e51c17;}</style></defs><title>download_04_EN</title><path class="cls-1" d="M130.2,40H4.73A4.74,4.74,0,0,1,0,35.27V4.73A4.73,4.73,0,0,1,4.73,0H130.2A4.8,4.8,0,0,1,135,4.73V35.27A4.8,4.8,0,0,1,130.2,40Z"/><path d="M134,35.27a3.83,3.83,0,0,1-3.83,3.83H4.73A3.83,3.83,0,0,1,.89,35.27V4.72A3.84,3.84,0,0,1,4.73.89H130.2A3.83,3.83,0,0,1,134,4.72V35.27Z"/><path class="cls-2" d="M59.23,13.63a.73.73,0,0,0-.73-.71H55.56a.73.73,0,0,0-.73.73v1.58h-.39a.73.73,0,0,0-.24,0,4.06,4.06,0,0,0-1.89,1.32,2.18,2.18,0,0,0-2.06-1.88h-.14a2.12,2.12,0,0,0-1.25.43.72.72,0,0,0-.53-.23H47.1a.72.72,0,0,0,.11-.52L47,13.14l.93-.89a.73.73,0,0,0-.4-1.24l-1.3-.18-.58-1.15a.73.73,0,0,0-.65-.4h0a.73.73,0,0,0-.65.4l-.58,1.15-1.3.18a.73.73,0,0,0-.4,1.24l.93.89-.22,1.26a.72.72,0,0,0,.14.56,3.93,3.93,0,0,0-.93-.11,4.15,4.15,0,0,0-.85.08,2.62,2.62,0,0,0-1.6,1l.21-2.32a.73.73,0,0,0-.5-.76,12,12,0,0,0-3.67-.64,5.5,5.5,0,0,0-2.09.33,8.49,8.49,0,0,0-3.64,3,.72.72,0,0,0-.71-.61H26.52a.73.73,0,0,0-.5.2.72.72,0,0,0-.46-.16H22.88a.73.73,0,0,0-.44.15c-.9-2.38-2.22-2.7-2.85-2.7h-.17a3.18,3.18,0,0,0-2.07,1.09,2.89,2.89,0,0,0-2.19-1H15a2.59,2.59,0,0,0-1.32.45.73.73,0,0,0-.68-.47h0l-3.43,0a.73.73,0,0,0-.72.67l-.81,9.94a.73.73,0,0,0,.72.78h0l4.54-.05a.73.73,0,0,0,.72-.73l0-4.29L15.12,23l0,.08a.91.91,0,0,0,1.77,0l0-.09L18,18.2l0,4.86a.72.72,0,0,0,.12.39.72.72,0,0,0-.24.38,20.27,20.27,0,0,1-1.32,2.08.73.73,0,0,0-.11.23,1.21,1.21,0,0,0,.18,1.09,1.23,1.23,0,0,0,1,.45A10.64,10.64,0,0,1,25,30.34a.75.75,0,0,0,.18.14,1.79,1.79,0,0,0,.86.25,1.17,1.17,0,0,0,.86-.36,1.83,1.83,0,0,0,.44-1.21,84,84,0,0,1,1.52-8.73,6.35,6.35,0,0,0,4.51,5.83h0a10.31,10.31,0,0,0,2.54.35,5.42,5.42,0,0,0,5.26-3l0-.09a4.31,4.31,0,0,0,.5-.12.72.72,0,0,0,.4.12h0l2.9,0a.72.72,0,0,0,.39-.12l.1.12a.73.73,0,0,0,.51.21h0l3.48,0a.73.73,0,0,0,.72-.73,15.89,15.89,0,0,0-.61-3.26v0c0-.06,0-.12,0-.18l.28.13.18.07a2.57,2.57,0,0,0,.6.08,1.77,1.77,0,0,0,1-.32v.75c.16,2.7,3.13,3.76,3.26,3.81a.73.73,0,0,0,.24,0h0l3.59,0a.73.73,0,0,0,.72-.74ZM36.78,23.89A3.87,3.87,0,0,1,34,23.14a3.53,3.53,0,0,1-.26-4.9,3.48,3.48,0,0,1,2.12-.62,7.15,7.15,0,0,1,2.52.52.73.73,0,0,0,.29.06.72.72,0,0,0,.22,0s0,.07,0,.1a.72.72,0,0,0,.36.58l.14.06a1.72,1.72,0,0,0-.2.25v0a3.08,3.08,0,0,0,.32,3.94A6,6,0,0,1,36.78,23.89Zm13.47-8.46h0Z"/><path class="cls-3" d="M13.33,23.17h0l-4.54.05.81-9.94,3.42,0,.25,1.29a2.29,2.29,0,0,1,1.79-1.27,2.17,2.17,0,0,1,2.18,1.59s.8-1.63,2.22-1.72c0,0,2.16-.39,2.9,4.85a42.74,42.74,0,0,1,.43,5l-4,0,0-6.38s-.52-.89-1.09-.12l-1.41,6.28s-.19.51-.41-.06l-1.65-6.19c-.3-.7-.87-.65-.88.14Z"/><path class="cls-4" d="M22.88,15.68h2.68l.46,2,.49-2h2.62s-2.29,9.66-2.57,13.49c0,0,0,1.32-1.08.71,0,0-2.58-2.81-7.86-2.89,0,0-.6,0-.43-.64A18.47,18.47,0,0,0,18.62,24s3.79.44,5.53-1.5a2,2,0,0,0,.24-1.66Z"/><path class="cls-5" d="M39,13.57l-.35,3.9s-3.27-1.44-5.43.24a3.93,3.93,0,0,0-1.08,3,4.48,4.48,0,0,0,1.33,3,3.81,3.81,0,0,0,1.89.83,6,6,0,0,0,5.08-1.14S39,27,33.51,25.57c0,0-4-.86-4-6.17,0,0-.48-4,4.29-6.17C33.79,13.23,35.57,12.45,39,13.57Z"/><path class="cls-6" d="M44.08,16.53a2.81,2.81,0,0,0-2.77-.89c-1.83.4-1.68,2.57-1.68,2.57,1.06-.52,1.53-.35,1.53-.35a1,1,0,0,1,1,1.1c-1.75-.41-2.36.58-2.36.58A2.33,2.33,0,0,0,40,22.62c.52.59,2-.17,2-.17l0,.34,2.9,0C45,17.7,44.08,16.53,44.08,16.53Zm-2.52,5.36a.8.8,0,1,1,.79-.8A.8.8,0,0,1,41.56,21.89Z"/><path class="cls-7" d="M49.42,23l-3.48,0,0-7.33,2.37,0,.19,1.06s.58-1.28,1.64-1.25c0,0,1.32-.22,1.57,1.91,0,0,.08,2-1.62,1.63,0,0-1.16-.63-1.41-.24a3.54,3.54,0,0,0,.14,1.15A15.43,15.43,0,0,1,49.42,23Z"/><path class="cls-8" d="M58.5,13.65H55.56l0,2.32H54.46a3,3,0,0,0-2.17,2.88l0,1.32c.13,2.25,2.77,3.16,2.77,3.16l3.59,0Zm-2.76,7.77A1.31,1.31,0,0,1,54.33,20c-.07-1.21.65-1.37.65-1.37h.73Z"/><polygon class="cls-9" points="45 9.99 45.75 11.48 47.43 11.72 46.22 12.88 46.5 14.52 45 13.75 43.5 14.52 43.79 12.88 42.58 11.72 44.25 11.48 45 9.99"/><path class="cls-2" d="M71.62,17.19H70V12.71h0l-1.19,2.8h-1.4l-1.19-2.8h0v4.48H64.61V9.88h1.71l1.76,4.31h0l1.76-4.31h1.75Z"/><path class="cls-2" d="M72.65,12h1.77l.89,3.68h0L76.4,12H78.1L75.34,19.4H73.65l.92-2.2Z"/><path class="cls-2" d="M82.4,15.94a5.35,5.35,0,0,0,1.72-.32v1.44a8,8,0,0,1-1.92.23,3.43,3.43,0,0,1-2.58-1,3.83,3.83,0,0,1-.94-2.78c0-2.37,1.28-3.76,3.46-3.76A7.44,7.44,0,0,1,84,10v1.46a5.28,5.28,0,0,0-1.7-.32c-1.2,0-1.91.83-1.91,2.38S81.2,15.94,82.4,15.94Z"/><path class="cls-2" d="M89.47,12.35A1.94,1.94,0,0,1,90,13.92v3.28H88.51l0-.69h0a2,2,0,0,1-1.64.79,1.54,1.54,0,0,1-1.14-.44,1.57,1.57,0,0,1-.44-1.16c0-1.21.9-1.82,2.7-1.82h.45v-.13c0-.51-.24-.72-.85-.72a7.42,7.42,0,0,0-2,.33V12.18a7.53,7.53,0,0,1,2.07-.3A2.86,2.86,0,0,1,89.47,12.35ZM88.4,14.81H88c-.81,0-1.22.25-1.22.75a.54.54,0,0,0,.59.58A1,1,0,0,0,88.4,15Z"/><path class="cls-2" d="M93,17.19H91.3V12h1.61v1h0A2.55,2.55,0,0,1,95,12h.2V13.2H95C93.74,13.2,93,13.9,93,15Z"/><path class="cls-2" d="M99.62,12.5V9.68h1.61v7.51h-1.5l0-.66h0a2,2,0,0,1-1.59.76,1.81,1.81,0,0,1-1.46-.71,3.13,3.13,0,0,1-.57-2c0-1.73.79-2.7,2-2.7a2.19,2.19,0,0,1,1.5.62Zm-1,3.59a1,1,0,0,0,.7-.27.8.8,0,0,0,.3-.61V14a.8.8,0,0,0-.3-.61,1,1,0,0,0-.7-.27c-.67,0-1,.5-1,1.5S98,16.09,98.64,16.09Z"/><path class="cls-2" d="M109.34,15.61l-.4,1.58h-1.77l2.37-7.31h1.8l2.37,7.31H111.9l-.4-1.58Zm1.09-4.26h0l-.75,3h1.52Z"/><path class="cls-2" d="M116.36,17.19h-1.67V9.93a15.38,15.38,0,0,1,2.2-.15c2.13,0,3.21.79,3.21,2.38s-1,2.62-2.94,2.62a7.86,7.86,0,0,1-.8,0Zm0-3.71a4.44,4.44,0,0,0,.63.05c1,0,1.51-.47,1.51-1.27s-.5-1.19-1.51-1.19a3.19,3.19,0,0,0-.63.06Z"/><path class="cls-2" d="M121.13,17.19V9.88h1.7V13h0l2-3.14h2l-2.4,3.51,2.5,3.81h-2l-2.12-3.44h0v3.44Z"/><path class="cls-2" d="M64.61,22.1h3a5.83,5.83,0,0,1,1.54.15,2.7,2.7,0,0,1,1.22.74,3.53,3.53,0,0,1,.77,1.31,6,6,0,0,1,.26,1.91,5.31,5.31,0,0,1-.25,1.72,3.56,3.56,0,0,1-.87,1.43,2.87,2.87,0,0,1-1.15.65,4.94,4.94,0,0,1-1.45.17H64.61Zm1.63,1.37v5.36h1.22a4.45,4.45,0,0,0,1-.08,1.51,1.51,0,0,0,.66-.34,1.71,1.71,0,0,0,.43-.78,5.27,5.27,0,0,0,.17-1.48,4.83,4.83,0,0,0-.17-1.44,1.85,1.85,0,0,0-.46-.78,1.55,1.55,0,0,0-.76-.38A7.4,7.4,0,0,0,67,23.47Z"/><path class="cls-2" d="M72.4,27.18a3.17,3.17,0,0,1,.38-1.49,2.61,2.61,0,0,1,1.08-1.1,3.2,3.2,0,0,1,1.56-.38,2.92,2.92,0,0,1,2.18.86,3,3,0,0,1,.85,2.18,3,3,0,0,1-.86,2.2,2.9,2.9,0,0,1-2.16.87A3.4,3.4,0,0,1,73.89,30a2.5,2.5,0,0,1-1.11-1.07A3.56,3.56,0,0,1,72.4,27.18Zm1.59.08a1.94,1.94,0,0,0,.41,1.33,1.35,1.35,0,0,0,2,0,2,2,0,0,0,.41-1.35,1.93,1.93,0,0,0-.41-1.32,1.35,1.35,0,0,0-2,0A1.94,1.94,0,0,0,74,27.26Z"/><path class="cls-2" d="M80.75,30.19,78.9,24.33h1.51l1.1,3.84,1-3.84H84l1,3.84,1.12-3.84h1.53l-1.88,5.86H84.26l-1-3.77-1,3.77Z"/><path class="cls-2" d="M93.78,30.19H92.23v-3a4.62,4.62,0,0,0-.1-1.23.86.86,0,0,0-.32-.43.92.92,0,0,0-.54-.15,1.24,1.24,0,0,0-.72.22,1.11,1.11,0,0,0-.44.58A5.05,5.05,0,0,0,90,27.54v2.65H88.44V24.33h1.44v.86a2.4,2.4,0,0,1,2.87-.81,1.57,1.57,0,0,1,.64.47,1.71,1.71,0,0,1,.3.65,4.84,4.84,0,0,1,.09,1Z"/><path class="cls-2" d="M95.35,30.19V22.1H96.9v8.09Z"/><path class="cls-2" d="M98.13,27.18a3.17,3.17,0,0,1,.38-1.49,2.61,2.61,0,0,1,1.08-1.1,3.2,3.2,0,0,1,1.56-.38,2.92,2.92,0,0,1,2.18.86,3,3,0,0,1,.85,2.18,3,3,0,0,1-.86,2.2,2.9,2.9,0,0,1-2.16.87A3.4,3.4,0,0,1,99.62,30a2.5,2.5,0,0,1-1.11-1.07A3.56,3.56,0,0,1,98.13,27.18Zm1.59.08a1.94,1.94,0,0,0,.41,1.33,1.35,1.35,0,0,0,2,0,2,2,0,0,0,.41-1.35,1.93,1.93,0,0,0-.41-1.32,1.35,1.35,0,0,0-2,0A1.94,1.94,0,0,0,99.72,27.26Z"/><path class="cls-2" d="M106.54,26.12l-1.41-.25a2.19,2.19,0,0,1,.82-1.26,3,3,0,0,1,1.72-.41,3.71,3.71,0,0,1,1.54.25,1.54,1.54,0,0,1,.71.62,3.2,3.2,0,0,1,.21,1.39l0,1.81a6.28,6.28,0,0,0,.07,1.14,3.32,3.32,0,0,0,.28.79h-1.53q-.06-.15-.15-.46l-.06-.18a2.79,2.79,0,0,1-.85.58,2.43,2.43,0,0,1-1,.19,2,2,0,0,1-1.43-.49,1.63,1.63,0,0,1-.52-1.24,1.67,1.67,0,0,1,.24-.89,1.55,1.55,0,0,1,.66-.6,5.19,5.19,0,0,1,1.23-.36,8.44,8.44,0,0,0,1.51-.38v-.15a.8.8,0,0,0-.22-.64,1.32,1.32,0,0,0-.83-.19,1.11,1.11,0,0,0-.65.16A1.13,1.13,0,0,0,106.54,26.12Zm2.07,1.26a9.69,9.69,0,0,1-.94.24,2.84,2.84,0,0,0-.84.27.65.65,0,0,0-.3.55.76.76,0,0,0,.24.56.85.85,0,0,0,.62.24,1.34,1.34,0,0,0,.8-.28,1,1,0,0,0,.37-.51,3.06,3.06,0,0,0,.06-.76Z"/><path class="cls-2" d="M117,30.19H115.6v-.86a2.33,2.33,0,0,1-.85.75,2.17,2.17,0,0,1-1,.25,2.23,2.23,0,0,1-1.73-.81,3.31,3.31,0,0,1-.72-2.27A3.27,3.27,0,0,1,112,25a2.28,2.28,0,0,1,1.77-.77,2.19,2.19,0,0,1,1.7.82V22.1H117Zm-4.14-3.06a2.68,2.68,0,0,0,.26,1.36,1.17,1.17,0,0,0,1,.61,1.14,1.14,0,0,0,.91-.46,2.1,2.1,0,0,0,.38-1.36,2.3,2.3,0,0,0-.36-1.45,1.15,1.15,0,0,0-.93-.44,1.16,1.16,0,0,0-.92.44A2,2,0,0,0,112.9,27.13Z"/></svg>