<svg id="圖層_1" data-name="圖層 1" xmlns="http://www.w3.org/2000/svg" viewBox="0 0 135 40"><defs><style>.cls-1{fill:#a6a6a6;}.cls-2{fill:#fff;}</style></defs><title>download_01</title><path class="cls-1" d="M130.2,40H4.73A4.74,4.74,0,0,1,0,35.27V4.73A4.73,4.73,0,0,1,4.73,0H130.2A4.8,4.8,0,0,1,135,4.73V35.27A4.8,4.8,0,0,1,130.2,40Z"/><path d="M134,35.27a3.83,3.83,0,0,1-3.83,3.83H4.73A3.83,3.83,0,0,1,.89,35.27V4.72A3.84,3.84,0,0,1,4.73.89H130.2A3.83,3.83,0,0,1,134,4.72V35.27Z"/><path class="cls-2" d="M30.13,19.78a5.8,5.8,0,0,1,2.76-4.86,5.94,5.94,0,0,0-4.68-2.53c-2-.21-3.87,1.18-4.88,1.18s-2.57-1.16-4.23-1.12a6.23,6.23,0,0,0-5.24,3.2c-2.27,3.92-.58,9.69,1.6,12.86,1.09,1.55,2.36,3.29,4,3.23s2.23-1,4.19-1,2.51,1,4.21,1,2.84-1.56,3.89-3.13a12.83,12.83,0,0,0,1.78-3.62A5.6,5.6,0,0,1,30.13,19.78Z"/><path class="cls-2" d="M26.93,10.31a5.71,5.71,0,0,0,1.31-4.09,5.81,5.81,0,0,0-3.76,1.94,5.43,5.43,0,0,0-1.34,3.94A4.8,4.8,0,0,0,26.93,10.31Z"/><path class="cls-2" d="M54,17H52l-1.1-3.45H47.08L46,17h-2L47.86,5.27H50.2Zm-3.44-4.9-1-3.07q-.16-.47-.59-2.22h0q-.18.75-.56,2.22l-1,3.07Z"/><path class="cls-2" d="M63.74,12.69a4.82,4.82,0,0,1-1.17,3.42A3.42,3.42,0,0,1,60,17.22,2.6,2.6,0,0,1,57.57,16h0v4.47H55.65V11.34q0-1.36-.07-2.79h1.66l.1,1.34h0a3.35,3.35,0,0,1,5.37-.33A4.68,4.68,0,0,1,63.74,12.69Zm-1.92.07a3.51,3.51,0,0,0-.56-2,1.93,1.93,0,0,0-1.64-.84,2,2,0,0,0-1.27.46,2.14,2.14,0,0,0-.74,1.21,2.41,2.41,0,0,0-.09.58v1.41a2.26,2.26,0,0,0,.57,1.56,1.88,1.88,0,0,0,1.47.64,1.93,1.93,0,0,0,1.66-.82A3.61,3.61,0,0,0,61.82,12.76Z"/><path class="cls-2" d="M73.5,12.69a4.82,4.82,0,0,1-1.17,3.42,3.42,3.42,0,0,1-2.6,1.12A2.6,2.6,0,0,1,67.32,16h0v4.47H65.4V11.34q0-1.36-.07-2.79H67l.1,1.34h0a3.35,3.35,0,0,1,5.37-.33A4.68,4.68,0,0,1,73.5,12.69Zm-1.92.07a3.5,3.5,0,0,0-.56-2,1.93,1.93,0,0,0-1.64-.84,2,2,0,0,0-1.26.46,2.13,2.13,0,0,0-.74,1.21,2.42,2.42,0,0,0-.09.58v1.41a2.26,2.26,0,0,0,.57,1.56,1.88,1.88,0,0,0,1.47.64A1.93,1.93,0,0,0,71,14.92,3.62,3.62,0,0,0,71.58,12.76Z"/><path class="cls-2" d="M86.76,13.73a3.14,3.14,0,0,1-1,2.44,4.63,4.63,0,0,1-3.2,1,5.6,5.6,0,0,1-3-.73l.44-1.57a5.16,5.16,0,0,0,2.72.75,2.56,2.56,0,0,0,1.66-.48,1.57,1.57,0,0,0,.59-1.28,1.64,1.64,0,0,0-.49-1.21,4.56,4.56,0,0,0-1.62-.91q-3.09-1.15-3.09-3.37A3,3,0,0,1,80.76,6a4.27,4.27,0,0,1,2.88-.93,5.72,5.72,0,0,1,2.67.56l-.47,1.54a4.64,4.64,0,0,0-2.25-.54A2.28,2.28,0,0,0,82,7.14a1.4,1.4,0,0,0-.47,1.06,1.44,1.44,0,0,0,.54,1.15,6.1,6.1,0,0,0,1.71.91A5.77,5.77,0,0,1,86,11.69,3,3,0,0,1,86.76,13.73Z"/><path class="cls-2" d="M93,10H90.91v4.12q0,1.57,1.1,1.57a3.38,3.38,0,0,0,.84-.09L92.9,17a4.27,4.27,0,0,1-1.47.21,2.26,2.26,0,0,1-1.75-.68,3.34,3.34,0,0,1-.63-2.29V10H87.82V8.55h1.24V7l1.85-.56V8.55H93V10Z"/><path class="cls-2" d="M102.36,12.72a4.66,4.66,0,0,1-1.12,3.21,4,4,0,0,1-3.11,1.29,3.79,3.79,0,0,1-3-1.24,4.51,4.51,0,0,1-1.11-3.12A4.61,4.61,0,0,1,95.2,9.63a4,4,0,0,1,3.08-1.26,3.88,3.88,0,0,1,3,1.24A4.48,4.48,0,0,1,102.36,12.72Zm-2,.06a3.82,3.82,0,0,0-.51-2,1.86,1.86,0,0,0-1.69-1,1.89,1.89,0,0,0-1.73,1,3.89,3.89,0,0,0-.51,2,3.82,3.82,0,0,0,.51,2,1.9,1.9,0,0,0,1.71,1,1.88,1.88,0,0,0,1.69-1A3.81,3.81,0,0,0,100.4,12.78Z"/><path class="cls-2" d="M108.48,10.21a3.21,3.21,0,0,0-.59-.05,1.78,1.78,0,0,0-1.54.75,2.83,2.83,0,0,0-.47,1.68V17H104l0-5.81q0-1.47-.07-2.67h1.64l.07,1.62h.05a2.89,2.89,0,0,1,.94-1.34A2.28,2.28,0,0,1,108,8.38a2.91,2.91,0,0,1,.47,0Z"/><path class="cls-2" d="M116.91,12.39a4.49,4.49,0,0,1-.07.85h-5.65a2.46,2.46,0,0,0,.82,1.92,2.8,2.8,0,0,0,1.85.59,6.23,6.23,0,0,0,2.29-.4l.3,1.31a7.1,7.1,0,0,1-2.85.52A4.11,4.11,0,0,1,110.5,16a4.28,4.28,0,0,1-1.13-3.11,4.87,4.87,0,0,1,1-3.19,3.62,3.62,0,0,1,3-1.36,3.16,3.16,0,0,1,2.77,1.36A4.58,4.58,0,0,1,116.91,12.39Zm-1.8-.49a2.56,2.56,0,0,0-.37-1.45,1.65,1.65,0,0,0-1.5-.78,1.79,1.79,0,0,0-1.5.77,2.82,2.82,0,0,0-.56,1.47h3.93Z"/><path class="cls-2" d="M49.14,35.29V24.2h-5v-1.1H56.51V24.2H50.3V35.29ZM54.6,31.6a8.46,8.46,0,0,0-.91-1.07,11.52,11.52,0,0,0-1-.85,10.06,10.06,0,0,0-.94-.66l-.85-.5.5-.84a7.11,7.11,0,0,1,1.3.64,10.47,10.47,0,0,1,1.13.83q.4.34.78.74t.77.84Z"/><path class="cls-2" d="M68.39,21.93c0,.23,0,.42,0,.56s0,.31,0,.48l.67-.64a4,4,0,0,1,1.3.76,7.62,7.62,0,0,1,1,1.11,1.61,1.61,0,0,1-.28.34l-.33.31h1V25.9H68.54q.12,1.28.26,2.4t.28,2.22a7.4,7.4,0,0,0,.74-1.84,13,13,0,0,0,.31-2.07l1.05.31a10.83,10.83,0,0,1-.53,2.75A9.67,9.67,0,0,1,69.48,32a6.7,6.7,0,0,0,.5,1.07,3.33,3.33,0,0,0,.76.92s.09,0,.13,0a3.39,3.39,0,0,0,.12-.5,4.38,4.38,0,0,0,.05-.54c0-.18,0-.35,0-.52s0-.31,0-.43l1.08.38q0,.68-.14,1.33a2.84,2.84,0,0,1-.44,1.17,1,1,0,0,1-.76.35,1.28,1.28,0,0,1-.5-.13,2.07,2.07,0,0,1-.44-.3,2.69,2.69,0,0,1-.36-.39l-.3-.41a4.55,4.55,0,0,1-.26-.46q-.13-.25-.25-.46a3.9,3.9,0,0,1-.46.47l-.6.53c-.21.18-.44.36-.67.54l-.7.5-.87-.85q.46-.27.79-.48a4.68,4.68,0,0,0,.46-.33H63.93v1.79H62.76V33.46H58.88v-1h3.9v-.56H60V28.06h2.76v-.49H59.43v-1h3.36v-.68H59.16V24.85h3.57v-.71h-3v-1h3v-1.2h1.13v1.2h3.05v1H63.87v.71h3.47l-.06-2.92ZM62.79,29H61.1v.47h1.67Zm0,1.35H61.1V31h1.67Zm4.77,2.31a3.42,3.42,0,0,0,.3-.3q.21-.23.39-.47a10.91,10.91,0,0,1-.33-1.33q-.13-.73-.23-1.5t-.16-1.57q-.07-.79-.13-1.53H63.91v.67h3.32v1H63.91v.5l2.76,0v3.84H63.91v.56h3.63Zm-2-3.67H63.9v.47h1.69Zm0,1.35-1.69,0V31h1.69Zm5-5.47a4.9,4.9,0,0,0-.93-1.05,4.79,4.79,0,0,0-1.22-.74q0,.52,0,1c0,.3,0,.58,0,.82Z"/></svg>